<svg width="46" height="33" viewBox="0 0 46 33" fill="none" xmlns="http://www.w3.org/2000/svg">
<path d="M15.5385 0.104355C9.43521 0.850813 5.45646 3.9798 2.50137 10.3707C1.13005 13.3361 0.454048 15.6062 0.135361 18.2852C-0.0964106 20.1872 -0.0191533 23.5207 0.280219 24.9931C0.511991 26.1588 1.00451 27.6006 1.55496 28.7561C2.00885 29.7275 3.22565 31.8544 3.50571 32.1816C3.96925 32.7236 3.77611 32.7134 10.2657 32.7134C15.9152 32.7134 16.3304 32.7031 16.8809 32.5191C18.3005 32.0487 19.5076 30.7603 19.9229 29.2469C20.0581 28.7663 20.0774 27.8051 20.0774 22.0687C20.0774 15.8618 20.0677 15.4119 19.8939 14.829C19.4497 13.3259 18.2329 12.0477 16.8036 11.608C16.398 11.4853 15.8283 11.4444 14.3604 11.4444C13.3077 11.4444 12.4482 11.4239 12.4482 11.3933C12.4482 11.2603 13.3367 8.93916 13.6071 8.37676C14.6694 6.12715 16.1469 4.67514 18.5805 3.46853C19.7587 2.87546 20.0001 2.59937 20.0581 1.74043C20.0967 1.05532 19.8843 0.574726 19.4014 0.216835C19.102 0.0123253 18.9861 -0.00812531 17.6728 0.00209808C16.9002 0.0123253 15.9345 0.0532265 15.5385 0.104355Z" fill="url(#paint0_linear_183_650)"/>
<path d="M41.4611 0.104355C35.3578 0.850813 31.3791 3.9798 28.424 10.3707C27.0527 13.3361 26.3767 15.6062 26.058 18.2852C25.8262 20.1872 25.9035 23.5207 26.2028 24.9931C26.4346 26.1588 26.9271 27.6006 27.4776 28.7561C27.9315 29.7275 29.1483 31.8544 29.4283 32.1816C29.8919 32.7236 29.6987 32.7134 36.1883 32.7134C41.8378 32.7134 42.253 32.7031 42.8035 32.5191C44.2231 32.0487 45.4302 30.7603 45.8455 29.2469C45.9807 28.7663 46 27.8051 46 22.0687C46 15.8618 45.9904 15.4119 45.8165 14.829C45.3723 13.3259 44.1555 12.0477 42.7262 11.608C42.3206 11.4853 41.7509 11.4444 40.283 11.4444C39.2303 11.4444 38.3709 11.4239 38.3709 11.3933C38.3709 11.2603 39.2593 8.93916 39.5297 8.37676C40.592 6.12715 42.0695 4.67514 44.5032 3.46853C45.6813 2.87546 45.9228 2.59937 45.9807 1.74043C46.0193 1.05532 45.8069 0.574726 45.324 0.216835C45.0246 0.0123253 44.9088 -0.00812531 43.5954 0.00209808C42.8228 0.0123253 41.8571 0.0532265 41.4611 0.104355Z" fill="url(#paint1_linear_183_650)"/>
<defs>
<linearGradient id="paint0_linear_183_650" x1="10.0387" y1="32.7134" x2="10.0387" y2="0" gradientUnits="userSpaceOnUse">
<stop stop-color="#B851E0"/>
<stop offset="1" stop-color="#EB489B"/>
</linearGradient>
<linearGradient id="paint1_linear_183_650" x1="35.9613" y1="32.7134" x2="35.9613" y2="0" gradientUnits="userSpaceOnUse">
<stop stop-color="#B851E0"/>
<stop offset="1" stop-color="#EB489B"/>
</linearGradient>
</defs>
</svg>
